<mxfile host="app.diagrams.net" modified="2023-12-27T00:48:22.398Z" agent="Mozilla/5.0 (Windows NT 10.0; Win64; x64; rv:121.0) Gecko/20100101 Firefox/121.0" version="22.1.12" etag="wtE-Etn-2QJZhOU5L_9D" type="github">
  <diagram name="PÃ¡gina-1" id="AeAI3tOeINhiTbdR1GZ2">
    <mxGraphModel>
      <root>
        <mxCell id="0" />
        <mxCell id="1" parent="0" />
      </root>
    </mxGraphModel>
  </diagram>
</mxfile>
